<svg width="18" height="17" viewBox="0 0 18 17" fill="none" xmlns="http://www.w3.org/2000/svg">
<path d="M4.64567 5.74854H1.12842V16.8208H4.64567V5.74854Z" fill="#D40353"/>
<path d="M4.8773 2.32364C4.85447 1.23801 4.1135 0.411133 2.91027 0.411133C1.70704 0.411133 0.92041 1.23801 0.92041 2.32364C0.92041 3.38678 1.68379 4.23746 2.86461 4.23746H2.88709C4.1135 4.23746 4.8773 3.38678 4.8773 2.32364Z" fill="#D40353"/>
<path d="M17.3304 10.4725C17.3304 7.07161 15.5953 5.48877 13.2808 5.48877C11.4133 5.48877 10.5773 6.56345 10.1104 7.31735V5.74906H6.59277C6.63913 6.78802 6.59277 16.8213 6.59277 16.8213H10.1104V10.6376C10.1104 10.3067 10.1333 9.97663 10.2263 9.73971C10.4805 9.07862 11.0593 8.39416 12.031 8.39416C13.3042 8.39416 13.8132 9.40946 13.8132 10.8974V16.821H17.3303L17.3304 10.4725Z" fill="#D40353"/>
</svg>
