<svg width="18" height="18" viewBox="0 0 18 18" fill="none" xmlns="http://www.w3.org/2000/svg">
<path d="M4.64567 5.92969H1.12842V17.0019H4.64567V5.92969Z" fill="#DADADA"/>
<path d="M4.8773 2.50479C4.85447 1.41916 4.1135 0.592285 2.91027 0.592285C1.70704 0.592285 0.92041 1.41916 0.92041 2.50479C0.92041 3.56793 1.68379 4.41862 2.86461 4.41862H2.88709C4.1135 4.41862 4.8773 3.56793 4.8773 2.50479Z" fill="#DADADA"/>
<path d="M17.3304 10.6537C17.3304 7.25276 15.5953 5.66992 13.2808 5.66992C11.4133 5.66992 10.5773 6.7446 10.1104 7.4985V5.93021H6.59277C6.63913 6.96918 6.59277 17.0025 6.59277 17.0025H10.1104V10.8188C10.1104 10.4879 10.1333 10.1578 10.2263 9.92086C10.4805 9.25977 11.0593 8.57531 12.031 8.57531C13.3042 8.57531 13.8132 9.59061 13.8132 11.0785V17.0022H17.3303L17.3304 10.6537Z" fill="#DADADA"/>
</svg>
