<svg width="24" height="19" viewBox="0 0 24 19" fill="none" xmlns="http://www.w3.org/2000/svg">
<path d="M0.223157 2.07009L0.912665 0.781587C0.985352 0.646048 1.09343 0.532754 1.22539 0.453763C1.35736 0.374772 1.50827 0.333039 1.66207 0.333008H10.8666C11.0178 0.332975 11.1663 0.373296 11.2968 0.44981C11.4272 0.526325 11.5349 0.636262 11.6087 0.768276L12.3142 2.03282C12.3903 2.16932 12.4273 2.32419 12.4211 2.48037C12.4149 2.63655 12.3657 2.78799 12.2789 2.918L7.85766 9.53621C7.78006 9.65232 7.67502 9.7475 7.55185 9.81333C7.42867 9.87915 7.29117 9.91358 7.15151 9.91357H5.36518C5.22532 9.91337 5.08767 9.87871 4.96439 9.81266C4.84111 9.74661 4.73601 9.6512 4.65837 9.53487L0.265752 2.94129C0.18053 2.8135 0.131561 2.66499 0.12406 2.51158C0.116559 2.35816 0.150807 2.20558 0.223157 2.07009Z" fill="white"/>
<path d="M17.9228 0.309576L21.6386 0.322887C21.7924 0.323666 21.9432 0.366168 22.0748 0.445867C22.2065 0.525565 22.314 0.639474 22.386 0.77546L23.1121 2.14116C23.1843 2.27661 23.2184 2.42911 23.2108 2.58241C23.2032 2.73571 23.1541 2.88407 23.0688 3.0117L13.2187 17.7869C13.1412 17.9031 13.0362 17.9985 12.913 18.0646C12.7899 18.1306 12.6523 18.1653 12.5126 18.1656H10.9951C10.8568 18.1657 10.7204 18.1319 10.5981 18.0673C10.4757 18.0027 10.371 17.9092 10.293 17.7949L8.41813 15.0488C8.32314 14.9099 8.2716 14.7459 8.27006 14.5776C8.26851 14.4093 8.31705 14.2444 8.40948 14.1037L17.21 0.692932C17.2875 0.574725 17.3933 0.477745 17.5178 0.410798C17.6423 0.343851 17.7815 0.309057 17.9228 0.309576Z" fill="white"/>
</svg>
