<svg width="21" height="13" viewBox="0 0 21 13" fill="none" xmlns="http://www.w3.org/2000/svg">
<path fill-rule="evenodd" clip-rule="evenodd" d="M9.9089 3.25843C9.9089 2.53085 9.71831 1.9072 9.3383 1.38516C8.70497 0.534954 7.63126 0.099338 6.11362 0.0771484H0.101074V12.3515H5.70757C6.33973 12.3515 6.92453 12.2978 7.46553 12.1868C8.00652 12.0747 8.47413 11.8703 8.8707 11.5702C9.22348 11.3086 9.51706 10.9862 9.75145 10.6043C10.122 10.0274 10.3067 9.37457 10.3067 8.64699C10.3067 7.94159 10.1445 7.34131 9.82248 6.84846C9.49693 6.35446 9.01868 5.99358 8.38416 5.76468C8.80204 5.55446 9.11812 5.32089 9.33357 5.06629C9.71831 4.61082 9.9089 4.00703 9.9089 3.25843ZM18.2986 2.1766H12.9667V0.649024H18.2986V2.1766ZM13.5883 6.91469C13.6759 6.32374 13.8901 5.85543 14.2299 5.50974C14.5697 5.16405 15.0503 4.9912 15.6659 4.9912C16.2341 4.9912 16.7088 5.15354 17.0947 5.47937C17.4759 5.80754 17.6913 6.28404 17.7351 6.91469H13.5883ZM17.8287 3.45899C18.4715 3.74161 19.0007 4.19007 19.4174 4.80204C19.7974 5.34159 20.0412 5.96757 20.1525 6.67881C20.2176 7.09457 20.2436 7.69719 20.233 8.48083H13.5291C13.5694 9.3906 13.8866 10.0294 14.4927 10.395C14.8597 10.6227 15.3013 10.7372 15.8198 10.7372C16.3655 10.7372 16.8118 10.5982 17.1539 10.3214C17.3421 10.1707 17.5079 9.96286 17.6499 9.69659H20.1063C20.0412 10.2338 19.7429 10.7815 19.2149 11.3374C18.391 12.2192 17.2368 12.6606 15.7535 12.6606C14.5282 12.6606 13.4474 12.2893 12.5134 11.5442C11.5746 10.8002 11.1082 9.58797 11.1082 7.91091C11.1082 6.33779 11.5308 5.13138 12.3749 4.29168C13.2213 3.45431 14.3163 3.03271 15.6647 3.03271C16.4661 3.03271 17.1871 3.17519 17.8287 3.45899ZM2.58113 10.2211V6.94755H5.64481C6.17753 6.95223 6.59304 7.0223 6.88899 7.15543C7.41815 7.39485 7.68096 7.8328 7.68096 8.47279C7.68096 9.22724 7.40868 9.73643 6.86295 10.005C6.56345 10.1487 6.14201 10.2211 5.6022 10.2211H2.58113ZM2.58113 2.20838V4.91667H5.60693C6.14556 4.91667 6.58476 4.81507 6.92332 4.61186C7.25952 4.40865 7.42881 4.04894 7.42881 3.53508C7.42881 2.96166 7.20625 2.58443 6.76114 2.39991C6.37522 2.27261 5.88513 2.20838 5.28967 2.20838H2.58113Z" fill="white"/>
</svg>
