<svg width="17" height="17" viewBox="0 0 17 17" fill="none" xmlns="http://www.w3.org/2000/svg">
<path fill-rule="evenodd" clip-rule="evenodd" d="M16.1227 8.05434C16.1227 8.59259 16.0679 9.13009 15.9603 9.65402C15.8553 10.1655 15.6999 10.6677 15.4962 11.1477C15.2973 11.6193 15.0505 12.0737 14.7621 12.4975C14.478 12.9186 14.1508 13.3136 13.7913 13.6737C13.431 14.0323 13.0346 14.3587 12.6137 14.6439C12.1885 14.9303 11.7335 15.1767 11.2616 15.3766C10.7809 15.5792 10.2776 15.7344 9.76652 15.8392C9.24189 15.9471 8.70243 16.0022 8.1634 16.0022C7.62398 16.0022 7.08455 15.9471 6.56066 15.8392C6.04883 15.7344 5.54554 15.5792 5.06518 15.3766C4.59338 15.1767 4.13787 14.9303 3.71271 14.6439C3.29182 14.3587 2.89541 14.0323 2.53591 13.6737C2.17604 13.3136 1.84879 12.9186 1.56431 12.4975C1.27749 12.0737 1.0303 11.6192 0.830554 11.1477C0.626882 10.6677 0.471059 10.1655 0.365734 9.65402C0.259257 9.13009 0.204834 8.59259 0.204834 8.05434C0.204834 7.51569 0.259225 6.97704 0.365765 6.45425C0.471091 5.94276 0.626913 5.43982 0.830585 4.96055C1.03033 4.48866 1.27752 4.03384 1.56434 3.61004C1.84882 3.1886 2.17607 2.79429 2.53594 2.43375C2.89544 2.07515 3.29185 1.74958 3.71274 1.46474C4.13791 1.17715 4.59341 0.930752 5.06521 0.730485C5.54557 0.52748 6.04883 0.371882 6.56069 0.267891C7.08458 0.160789 7.62401 0.106445 8.16344 0.106445C8.70246 0.106445 9.24189 0.160789 9.76655 0.267891C10.2776 0.371913 10.7809 0.527511 11.2617 0.730485C11.7335 0.930721 12.1886 1.17715 12.6137 1.46474C13.0346 1.74958 13.4311 2.07515 13.7913 2.43375C14.1508 2.79429 14.4781 3.1886 14.7621 3.61004C15.0505 4.03384 15.2973 4.48869 15.4962 4.96055C15.6999 5.43982 15.8553 5.94276 15.9603 6.45425C16.0679 6.97704 16.1227 7.51569 16.1227 8.05434ZM5.26337 1.91517C3.36796 2.80894 1.95331 4.55296 1.5122 6.65481L1.51874 6.65487C1.75105 6.65701 4.55814 6.68296 7.78719 5.82624C6.61079 3.73914 5.35393 2.0359 5.26337 1.91517ZM1.37202 7.83869C1.49249 7.84333 4.85074 7.91861 8.35043 6.87238C8.54513 7.25348 8.73132 7.64001 8.90191 8.02574C8.81254 8.05134 8.72235 8.07775 8.63375 8.10724C4.96579 9.29164 3.10573 12.5868 3.10807 12.5903C2.02531 11.3884 1.36657 9.79885 1.36657 8.05523C1.36657 8.0049 1.36823 7.95569 1.36991 7.90606L1.36991 7.90605L1.36991 7.90605C1.37066 7.88373 1.37141 7.86132 1.37202 7.83869ZM12.6521 2.96067C11.4555 1.90701 9.88425 1.26788 8.16335 1.26788C7.61109 1.26788 7.07515 1.33464 6.56176 1.45804L6.57281 1.47283C6.73376 1.6881 7.97227 3.34456 9.10268 5.4172C11.6463 4.46497 12.6195 3.00955 12.6515 2.96157L12.6521 2.96067ZM9.34864 9.1547L9.36516 9.14941C10.3216 11.6316 10.7164 13.7101 10.8171 14.3031C10.0013 14.6496 9.10476 14.841 8.1635 14.841C6.58717 14.841 5.13988 14.3004 3.98598 13.4043C4.00015 13.3736 5.30977 10.5602 9.32008 9.16416C9.32948 9.16072 9.33901 9.15772 9.3486 9.15471L9.34862 9.1547L9.34864 9.1547ZM11.9618 13.6835C13.4879 12.6551 14.5718 11.022 14.8742 9.13046C14.7343 9.08545 12.8327 8.48431 10.6388 8.83554C11.5303 11.282 11.8926 13.2744 11.9618 13.6835ZM10.0777 7.41322C9.93661 7.08214 9.78384 6.75272 9.62609 6.42905C12.2925 5.34164 13.3858 3.78184 13.4122 3.74408L13.4126 3.74354C14.3663 4.89961 14.9427 6.37626 14.9582 7.98521C14.9563 7.98483 14.9537 7.98427 14.9502 7.98354C14.7718 7.94644 12.5148 7.47704 10.2246 7.76482C10.1768 7.64842 10.1278 7.53198 10.0777 7.41322Z" fill="white"/>
</svg>
