<svg width="16" height="17" viewBox="0 0 16 17" fill="none" xmlns="http://www.w3.org/2000/svg">
<path fill-rule="evenodd" clip-rule="evenodd" d="M7.90552 0.737589C7.71721 0.737504 7.5427 0.737426 7.38049 0.73768V0.735352C5.64486 0.737292 5.31194 0.748932 4.45285 0.787735C3.54488 0.829447 3.05189 0.980776 2.72363 1.10882C2.28904 1.278 1.97862 1.47977 1.65268 1.80571C1.32674 2.13165 1.12458 2.44207 0.955792 2.87666C0.828326 3.20493 0.676609 3.69772 0.63509 4.60569C0.590468 5.58739 0.581543 5.88073 0.581543 8.36758C0.581543 10.8544 0.590468 11.1493 0.63509 12.131C0.676415 13.039 0.828326 13.5318 0.955792 13.8597C1.12497 14.2944 1.32674 14.6041 1.65268 14.93C1.97862 15.256 2.28904 15.4577 2.72363 15.6265C3.05209 15.754 3.54488 15.9057 4.45285 15.9476C5.43455 15.9922 5.72926 16.0019 8.2159 16.0019C10.7024 16.0019 10.9973 15.9922 11.979 15.9476C12.8869 15.9061 13.3801 15.7548 13.708 15.6267C14.1428 15.4579 14.4522 15.2562 14.7782 14.9302C15.1041 14.6045 15.3063 14.295 15.475 13.8604C15.6025 13.5326 15.7542 13.0398 15.7957 12.1318C15.8404 11.1501 15.8501 10.8552 15.8501 8.3699C15.8501 5.88462 15.8404 5.58972 15.7957 4.60802C15.7544 3.70004 15.6025 3.20725 15.475 2.87937C15.3059 2.44479 15.1041 2.13437 14.7782 1.80843C14.4524 1.48249 14.1426 1.28072 13.708 1.11193C13.3797 0.984463 12.8869 0.832745 11.979 0.791227C10.9971 0.746604 10.7024 0.73768 8.2159 0.73768L7.90552 0.737589ZM12.0695 3.40139C12.0695 2.78424 12.57 2.28427 13.187 2.28427V2.28388C13.8039 2.28388 14.3045 2.78443 14.3045 3.40139C14.3045 4.01835 13.8039 4.5189 13.187 4.5189C12.57 4.5189 12.0695 4.01835 12.0695 3.40139ZM8.21537 3.59003C5.57429 3.59003 3.43298 5.73133 3.43298 8.37242C3.43298 11.0135 5.57429 13.1538 8.21537 13.1538C10.8565 13.1538 12.997 11.0135 12.997 8.37242C12.997 5.73133 10.8563 3.59003 8.21517 3.59003H8.21537ZM11.3198 8.37198C11.3198 6.6575 9.9299 5.2678 8.21561 5.2678C6.50113 5.2678 5.11142 6.6575 5.11142 8.37198C5.11142 10.0863 6.50113 11.4762 8.21561 11.4762C9.9299 11.4762 11.3198 10.0863 11.3198 8.37198Z" fill="white"/>
</svg>
