<svg width="17" height="15" viewBox="0 0 17 15" fill="none" xmlns="http://www.w3.org/2000/svg">
<path d="M8.48224 4.01366L8.51793 4.60227L7.923 4.53019C5.75744 4.25391 3.86555 3.31693 2.25923 1.7433L1.47392 0.962492L1.27164 1.53909C0.843288 2.82442 1.11696 4.18183 2.00936 5.09478C2.4853 5.5993 2.37822 5.67138 1.55721 5.37106C1.27164 5.27496 1.02177 5.20289 0.997971 5.23893C0.91468 5.32301 1.20025 6.41615 1.42632 6.8486C1.73569 7.44922 2.36632 8.03783 3.05644 8.38619L3.63948 8.66248L2.94935 8.67449C2.28303 8.67449 2.25923 8.6865 2.33062 8.93876C2.5686 9.71957 3.50859 10.5484 4.55567 10.9088L5.29339 11.1611L4.65086 11.5455C3.69897 12.098 2.58049 12.4104 1.46202 12.4344C0.926579 12.4464 0.486328 12.4945 0.486328 12.5305C0.486328 12.6506 1.93797 13.3233 2.78277 13.5876C5.31719 14.3684 8.32755 14.032 10.5883 12.6987C12.1946 11.7497 13.8009 9.86372 14.5506 8.03783C14.9551 7.06482 15.3597 5.28698 15.3597 4.43409C15.3597 3.88152 15.3954 3.80944 16.0617 3.14876C16.4543 2.76436 16.8232 2.34392 16.8946 2.2238C17.0136 1.99556 17.0017 1.99556 16.3949 2.19977C15.3835 2.56015 15.2407 2.5121 15.7404 1.97154C16.1093 1.58714 16.5495 0.890417 16.5495 0.686205C16.5495 0.650168 16.3711 0.71023 16.1688 0.818342C15.9546 0.938467 15.4787 1.11865 15.1217 1.22677L14.4792 1.43098L13.8961 1.03457C13.5749 0.818342 13.1227 0.578093 12.8847 0.506018C12.2779 0.337844 11.3498 0.361869 10.8025 0.554068C9.31514 1.09463 8.37515 2.48807 8.48224 4.01366Z" fill="white"/>
</svg>
